<svg width="560" height="560" viewBox="0 0 560 560" fill="none" xmlns="http://www.w3.org/2000/svg">
<path d="M5 352.504L36.0064 283.979H46.2123L77.2187 352.504H64.5829L57.7789 336.661H24.3426L17.6358 352.504H5ZM40.9636 297.49L28.6193 326.747H53.5022L41.1579 297.49H40.9636Z" fill="white"/>
<path d="M83.5503 370V304.974H95.4085V312.556C96.7693 309.964 98.8105 307.89 101.532 306.335C104.318 304.78 107.461 304.002 110.96 304.002C115.107 304.002 118.736 305.006 121.847 307.015C125.022 309.024 127.484 311.875 129.234 315.569C130.983 319.197 131.858 323.571 131.858 328.691C131.858 333.745 130.983 338.151 129.234 341.91C127.484 345.603 125.054 348.454 121.944 350.463C118.833 352.472 115.172 353.476 110.96 353.476C107.591 353.476 104.545 352.763 101.824 351.338C99.1669 349.848 97.1257 347.871 95.7001 345.409V370H83.5503ZM107.558 344.242C111.187 344.242 114.103 342.946 116.306 340.354C118.509 337.698 119.611 333.81 119.611 328.691C119.611 323.507 118.509 319.651 116.306 317.124C114.103 314.532 111.187 313.236 107.558 313.236C103.93 313.236 101.014 314.532 98.8105 317.124C96.6073 319.651 95.5057 323.507 95.5057 328.691C95.5057 333.81 96.6073 337.698 98.8105 340.354C101.014 342.946 103.93 344.242 107.558 344.242Z" fill="white"/>
<path d="M141.832 370V304.974H153.69V312.556C155.051 309.964 157.092 307.89 159.813 306.335C162.6 304.78 165.742 304.002 169.242 304.002C173.389 304.002 177.018 305.006 180.128 307.015C183.303 309.024 185.765 311.875 187.515 315.569C189.265 319.197 190.139 323.571 190.139 328.691C190.139 333.745 189.265 338.151 187.515 341.91C185.765 345.603 183.335 348.454 180.225 350.463C177.115 352.472 173.454 353.476 169.242 353.476C165.872 353.476 162.827 352.763 160.105 351.338C157.448 349.848 155.407 347.871 153.981 345.409V370H141.832ZM165.84 344.242C169.468 344.242 172.384 342.946 174.588 340.354C176.791 337.698 177.892 333.81 177.892 328.691C177.892 323.507 176.791 319.651 174.588 317.124C172.384 314.532 169.468 313.236 165.84 313.236C162.211 313.236 159.295 314.532 157.092 317.124C154.889 319.651 153.787 323.507 153.787 328.691C153.787 333.81 154.889 337.698 157.092 340.354C159.295 342.946 162.211 344.242 165.84 344.242Z" fill="white"/>
<path d="M332.27 352.504V283.979H362.013C369.529 283.979 375.329 285.794 379.411 289.422C383.494 292.986 385.535 298.008 385.535 304.488C385.535 309.607 384.206 313.852 381.55 317.221C378.893 320.526 375.07 322.761 370.08 323.928C373.385 324.965 376.106 327.459 378.245 331.412L389.714 352.504H376.009L364.151 330.635C362.985 328.496 361.591 327.038 359.971 326.261C358.416 325.483 356.407 325.094 353.945 325.094H344.711V352.504H332.27ZM344.711 315.86H359.874C368.946 315.86 373.482 312.167 373.482 304.78C373.482 297.457 368.946 293.796 359.874 293.796H344.711V315.86Z" fill="white"/>
<path d="M412.912 353.476C409.478 353.476 406.4 352.828 403.678 351.532C401.021 350.172 398.916 348.357 397.36 346.089C395.87 343.821 395.125 341.262 395.125 338.41C395.125 334.911 396.032 332.157 397.846 330.149C399.661 328.075 402.609 326.585 406.691 325.677C410.774 324.77 416.249 324.317 423.118 324.317H426.52V322.275C426.52 319.035 425.807 316.703 424.382 315.277C422.956 313.852 420.558 313.139 417.189 313.139C414.532 313.139 411.811 313.56 409.024 314.402C406.238 315.18 403.419 316.411 400.568 318.096L397.069 309.834C398.754 308.668 400.73 307.663 402.998 306.821C405.331 305.914 407.761 305.233 410.288 304.78C412.88 304.261 415.31 304.002 417.578 304.002C424.511 304.002 429.663 305.622 433.032 308.862C436.402 312.037 438.087 316.994 438.087 323.733V352.504H426.714V344.923C425.613 347.58 423.863 349.686 421.466 351.241C419.068 352.731 416.217 353.476 412.912 353.476ZM415.439 345.117C418.614 345.117 421.239 344.016 423.312 341.812C425.451 339.609 426.52 336.823 426.52 333.453V331.315H423.215C417.124 331.315 412.88 331.801 410.482 332.773C408.149 333.68 406.983 335.365 406.983 337.827C406.983 339.966 407.728 341.715 409.219 343.076C410.709 344.437 412.783 345.117 415.439 345.117Z" fill="white"/>
<path d="M450.419 352.504V304.974H462.277V312.361C463.897 309.64 466.068 307.566 468.789 306.14C471.576 304.715 474.686 304.002 478.12 304.002C489.331 304.002 494.936 310.514 494.936 323.539V352.504H482.786V324.122C482.786 320.429 482.073 317.74 480.648 316.055C479.287 314.37 477.148 313.528 474.232 313.528C470.668 313.528 467.817 314.662 465.679 316.93C463.605 319.133 462.569 322.081 462.569 325.775V352.504H450.419Z" fill="white"/>
<path d="M507.276 352.504V283.979H519.426V325.191H519.62L538.769 304.974H553.446L531.867 327.719L554.806 352.504H539.935L519.62 331.315H519.426V352.504H507.276Z" fill="white"/>
<path fill-rule="evenodd" clip-rule="evenodd" d="M215.69 190C218.207 190 220.247 192.136 220.247 194.772V239.485C220.247 242.12 218.207 244.257 215.69 244.257C213.174 244.257 211.134 242.12 211.134 239.485V194.772C211.134 192.136 213.174 190 215.69 190ZM257.011 190C259.527 190 261.567 192.136 261.567 194.772V207.547C261.567 210.182 259.527 212.319 257.011 212.319C254.494 212.319 252.455 210.182 252.455 207.547V194.772C252.455 192.136 254.494 190 257.011 190ZM298.331 190C300.847 190 302.887 192.136 302.887 194.772V239.485C302.887 242.12 300.847 244.257 298.331 244.257C295.815 244.257 293.775 242.12 293.775 239.485V194.772C293.775 192.136 295.815 190 298.331 190ZM257.011 231.721C255.992 231.721 254.006 232.446 252.032 236.133L252.026 236.146L242.935 253.009C241.836 255.048 240.068 256.694 238.368 257.85C236.64 259.027 234.523 260.011 232.365 260.361L232.336 260.366L215.876 262.921L215.861 262.923C211.127 263.641 210.089 265.333 209.978 265.652C209.955 265.719 209.511 267.301 212.788 270.341L225.652 282.272C227.408 283.954 228.626 286.199 229.31 288.393C229.986 290.559 230.297 293.183 229.672 295.685L229.67 295.694L226.022 310.44C224.727 315.645 226.15 316.821 226.286 316.913C226.806 317.266 229.189 317.939 234.374 315.102L249.794 306.61L249.818 306.597C252.04 305.391 254.646 304.912 257.011 304.912C259.375 304.912 261.982 305.391 264.204 306.597L264.227 306.61L279.643 315.1C284.828 317.936 287.216 317.266 287.736 316.913C287.872 316.821 289.294 315.645 288 310.44L284.348 295.678L284.345 295.668C283.731 293.159 284.03 290.53 284.712 288.345C285.398 286.146 286.627 283.889 288.424 282.222L301.233 270.341C304.52 267.293 304.062 265.729 304.045 265.68C303.934 265.361 302.889 263.669 298.138 262.92L281.715 260.37C279.5 260.054 277.357 259.044 275.638 257.864C273.929 256.69 272.176 255.03 271.087 253.009L261.996 236.146L265.963 233.8L261.989 236.133C260.016 232.446 258.03 231.721 257.011 231.721ZM269.935 231.461C267.019 226.017 262.498 222.177 257.011 222.177C251.524 222.177 247.003 226.016 244.087 231.46L244.084 231.466L235 248.317C234.86 248.577 234.355 249.2 233.403 249.848C232.486 250.471 231.578 250.828 230.981 250.928L214.556 253.478L214.548 253.479C208.749 254.359 203.283 257.01 201.414 262.39C199.458 268.024 202.449 273.5 206.747 277.486L219.522 289.335C219.897 289.703 220.356 290.42 220.648 291.357C220.953 292.333 220.917 293.027 220.856 293.27L220.852 293.285L217.204 308.034C215.608 314.453 216.078 321.359 221.331 324.923C226.199 328.227 232.699 326.787 238.598 323.559L238.609 323.553L254.012 315.07L254.02 315.065C254.624 314.741 255.697 314.456 257.011 314.456C258.324 314.456 259.398 314.741 260.001 315.065L260.01 315.07L275.413 323.553L275.423 323.559C281.323 326.787 287.823 328.227 292.691 324.923C297.944 321.358 298.415 314.455 296.818 308.035L293.172 293.295C293.099 292.992 293.075 292.266 293.374 291.309C293.669 290.362 294.127 289.681 294.465 289.367L307.274 277.486C311.563 273.508 314.569 268.045 312.606 262.41C310.737 257.044 305.275 254.393 299.491 253.482L283.022 250.925L282.954 250.915C282.429 250.842 281.556 250.515 280.634 249.882C279.691 249.235 279.172 248.595 279.022 248.317L269.938 231.466L269.935 231.461Z" fill="white"/>
</svg>
